HIERARCHY
ROOT pelvis
{
  OFFSET 0 100 0
  CHANNELS 6 Xposition Yposition Zposition Zrotation Xrotation Yrotation
  JOINT pelvis_right_femur
  {
    OFFSET -10.78128 -3.44521 -0.5502486
    CHANNELS 3 Zrotation Xrotation Yrotation
    JOINT right_femur_tibia
    {
      OFFSET -0.8047443 -44.0398 -0.1307829
      CHANNELS 3 Zrotation Xrotation Yrotation
      JOINT right_tibia_foot
      {
        OFFSET 3.006224 -47.83518 -5
        CHANNELS 3 Zrotation Xrotation Yrotation
        End Site
        {
          OFFSET 0 -5 15
        }
      }
    }
  }
  JOINT pelvis_left_femur
  {
    OFFSET 10.78128 -3.44521 -0.5502486
    CHANNELS 3 Zrotation Xrotation Yrotation
    JOINT left_femur_tibia
    {
      OFFSET 0.8047443 -44.0398 -0.1307829
      CHANNELS 3 Zrotation Xrotation Yrotation
      JOINT left_tibia_foot
      {
        OFFSET -4.370144 -48.10324 -4.275266
        CHANNELS 3 Zrotation Xrotation Yrotation
        End Site
        {
          OFFSET 0 -5 15
        }
      }
    }
  }
  JOINT pelvis_spine1
  {
    OFFSET 0 6.468898 -3.129235
    CHANNELS 3 Zrotation Xrotation Yrotation
    JOINT spine1
    {
      OFFSET 0 23.15396 4.99043
      CHANNELS 3 Zrotation Xrotation Yrotation
      JOINT spine2
      {
        OFFSET 0 20.79997 -5.064912
        CHANNELS 3 Zrotation Xrotation Yrotation
        JOINT neck
        {
          OFFSET 0 14.38658 9.616178
          CHANNELS 3 Zrotation Xrotation Yrotation
          End Site
          {
            OFFSET 0 20 0
          }
        }
      }
      JOINT right_manubrium
      {
        OFFSET -5.722621 16.35077 3.967754
        CHANNELS 3 Zrotation Xrotation Yrotation
        JOINT right_clavicle
        {
          OFFSET -13.16364 1.694482 -4.693211
          CHANNELS 3 Zrotation Xrotation Yrotation
          JOINT right_humerus
          {
            OFFSET -28.5034 -0.3100689 -2.792744
            CHANNELS 3 Zrotation Xrotation Yrotation
            JOINT right_radius
            {
              OFFSET -25.15693 0.02248979 -1.271978
              CHANNELS 3 Zrotation Xrotation Yrotation
              End Site
              {
                OFFSET -15 0 0
              }
            }
          }
        }
      }
      JOINT left_manubrium
      {
        OFFSET 5.722621 16.35077 3.967754
        CHANNELS 3 Zrotation Xrotation Yrotation
        JOINT left_clavicle
        {
          OFFSET 13.16364 1.694482 -4.693211
          CHANNELS 3 Zrotation Xrotation Yrotation
          JOINT left_humerus
          {
            OFFSET 29.39168 -1.063119 -2.237045
            CHANNELS 3 Zrotation Xrotation Yrotation
            JOINT left_radius
            {
              OFFSET 24.59957 -0.9528479 0.9047498
              CHANNELS 3 Zrotation Xrotation Yrotation
              End Site
              {
                OFFSET 15 -0 -0
              }
            }
          }
        }
      }
    }
  }
}
MOTION
Frames: 23
Frame Time: 0.0416666666667
-813.9082 107.2316 -102.3423 16.01522 6.244654 118.9216 7.44516 16.443 -2.213904 -0 21.61078 -0 -16.34469 -4.684284 -4.277673 0.7952369 -5.737888 -10.43898 -0 23.68499 -0 -3.432668 -8.213159 19.71955 3.849705 -1.171404 2.872345 -1.115525 13.46103 -2.177178 5.924232 26.40052 -1.614808 -4.821151 -21.14098 9.492465 -14.38057 -27.66959 8.644843 103.491 0.7973047 -7.066628 -0 0 17.70195 -19.80498 5.921935 11.14851 2.933835 -17.04067 -5.349011 -95.87085 18.76702 28.82476 0 0 -2.378783 6.693487 23.03179 4.987707
-809.2088 107.224 -105.0184 16.07279 6.091544 118.386 7.445076 16.44304 -2.213942 -0 21.61113 -0 -16.34477 -4.684175 -4.277616 0.7951459 -5.737784 -10.43912 -0 23.68481 -0 -3.432758 -8.213321 19.71962 3.849671 -1.171333 2.872273 -1.115544 13.4609 -2.177096 5.92427 26.40062 -1.614803 -4.821136 -21.14099 9.492506 -14.38063 -27.66946 8.644786 103.491 0.7972232 -7.06651 -0 0 17.7018 -19.80482 5.921613 11.14846 2.933879 -17.04055 -5.348939 -95.87089 18.76721 28.8246 0 0 -2.378619 6.693483 23.03173 4.987718
-804.4838 107.2164 -107.6489 16.12892 5.937921 117.8506 7.444992 16.44303 -2.213995 -0 21.61151 -0 -16.34488 -4.684004 -4.277549 0.7950433 -5.737612 -10.43927 -0 23.68471 -0 -3.432857 -8.213507 19.71967 3.849641 -1.171262 2.872191 -1.115564 13.46079 -2.177015 5.924316 26.40074 -1.614802 -4.821124 -21.14101 9.492553 -14.38072 -27.66933 8.644726 103.4911 0.79709 -7.066417 -0 0 17.7016 -19.80466 5.921267 11.14838 2.933925 -17.04045 -5.348882 -95.87093 18.76741 28.82442 0 0 -2.378494 6.693495 23.03169 4.987713
-799.7336 107.2088 -110.2336 16.18361 5.783796 117.3156 7.444911 16.44297 -2.214062 -0 21.6119 -0 -16.34502 -4.683777 -4.277475 0.7949322 -5.737378 -10.43943 -0 23.6847 -0 -3.432961 -8.213712 19.71971 3.849617 -1.171195 2.8721 -1.115586 13.46068 -2.176938 5.924367 26.40087 -1.614804 -4.821113 -21.14103 9.492605 -14.38084 -27.66918 8.644666 103.4913 0.7969105 -7.06635 -0 0 17.70136 -19.8045 5.920905 11.14827 2.933971 -17.04037 -5.348838 -95.87096 18.76763 28.82421 0 0 -2.378411 6.69352 23.03168 4.987692
-794.9586 107.2012 -112.7722 16.23684 5.629183 116.781 7.444836 16.44287 -2.214139 -0 21.61229 -0 -16.34517 -4.683502 -4.277396 0.794816 -5.737092 -10.43959 -0 23.68476 -0 -3.433067 -8.21393 19.71973 3.849598 -1.171132 2.872003 -1.115609 13.46058 -2.176865 5.924423 26.401 -1.61481 -4.821105 -21.14106 9.492659 -14.38098 -27.66904 8.644607 103.4915 0.7966913 -7.06631 -0 0 17.7011 -19.80434 5.920538 11.14814 2.934015 -17.04031 -5.34881 -95.87098 18.76784 28.82398 0 0 -2.378369 6.693559 23.03169 4.987655
-790.1593 107.1936 -115.2645 16.28862 5.474092 116.2466 7.444768 16.44272 -2.214225 -0 21.61268 -0 -16.34533 -4.683189 -4.277315 0.7946979 -5.736762 -10.43974 -0 23.6849 -0 -3.433172 -8.214153 19.71975 3.849585 -1.171075 2.871904 -1.115632 13.4605 -2.1768 5.924481 26.40114 -1.614818 -4.8211 -21.1411 9.492714 -14.38113 -27.6689 8.64455 103.4917 0.7964399 -7.066297 -0 0 17.70081 -19.80418 5.920177 11.148 2.934058 -17.04027 -5.348798 -95.87098 18.76805 28.82374 0 0 -2.378368 6.693609 23.03172 4.987606
-785.3361 107.1861 -117.7103 16.33894 5.318535 115.7125 7.444708 16.44253 -2.214318 -0 21.61304 -0 -16.34551 -4.682848 -4.277233 0.7945813 -5.7364 -10.43988 -0 23.68511 -0 -3.433275 -8.214377 19.71975 3.849579 -1.171026 2.871805 -1.115654 13.46043 -2.176743 5.92454 26.40128 -1.614828 -4.821097 -21.14114 9.492769 -14.3813 -27.66876 8.644497 103.492 0.7961642 -7.066311 -0 0 17.7005 -19.80404 5.91983 11.14785 2.934097 -17.04026 -5.3488 -95.87098 18.76825 28.82349 0 0 -2.378407 6.693669 23.03178 4.987545
-780.4895 107.1785 -120.1093 16.38779 5.162524 115.1787 7.444658 16.44232 -2.214413 -0 21.61339 -0 -16.34568 -4.682489 -4.277153 0.7944692 -5.736017 -10.44001 -0 23.68537 -0 -3.433371 -8.214595 19.71973 3.849579 -1.170986 2.871709 -1.115676 13.46038 -2.176696 5.924598 26.40141 -1.614841 -4.821097 -21.14118 9.492822 -14.38147 -27.66864 8.644449 103.4922 0.7958725 -7.06635 -0 0 17.70019 -19.80391 5.919507 11.14768 2.934132 -17.04027 -5.348817 -95.87097 18.76844 28.82325 0 0 -2.378484 6.693736 23.03186 4.987474
-775.6199 107.171 -122.4613 16.43517 5.006069 114.6452 7.44462 16.44208 -2.214508 -0 21.61369 -0 -16.34586 -4.682122 -4.277076 0.7943644 -5.735623 -10.44013 -0 23.68569 -0 -3.433458 -8.2148 19.71971 3.849584 -1.170955 2.871618 -1.115695 13.46034 -2.17666 5.924654 26.40154 -1.614855 -4.821099 -21.14123 9.492872 -14.38164 -27.66853 8.644407 103.4925 0.7955733 -7.066412 -0 0 17.69988 -19.8038 5.919216 11.14752 2.934163 -17.0403 -5.348848 -95.87095 18.76861 28.82301 0 0 -2.378594 6.693809 23.03195 4.987396
-770.7278 107.1635 -124.7661 16.48108 4.849184 114.112 7.444592 16.44182 -2.214602 -0 21.61395 -0 -16.34603 -4.681758 -4.277006 0.7942695 -5.73523 -10.44023 -0 23.68604 -0 -3.433536 -8.21499 19.71968 3.849596 -1.170934 2.871535 -1.115713 13.46033 -2.176635 5.924706 26.40165 -1.614871 -4.821104 -21.14127 9.492918 -14.38181 -27.66843 8.644373 103.4928 0.795275 -7.066495 -0 0 17.69958 -19.80371 5.918962 11.14736 2.934187 -17.04036 -5.348891 -95.87092 18.76876 28.82279 0 0 -2.378733 6.693885 23.03206 4.987314
-765.8136 107.1561 -127.0235 16.52551 4.691878 113.5791 7.444577 16.44155 -2.214691 -0 21.61417 -0 -16.34619 -4.681405 -4.276943 0.7941868 -5.734848 -10.44031 -0 23.68643 -0 -3.433601 -8.215157 19.71963 3.849612 -1.170922 2.871461 -1.115729 13.46032 -2.176621 5.924753 26.40176 -1.614888 -4.821111 -21.14131 9.492958 -14.38197 -27.66835 8.644346 103.4931 0.7949856 -7.066595 -0 0 17.6993 -19.80364 5.918752 11.1472 2.934206 -17.04043 -5.348944 -95.87089 18.76888 28.82259 0 0 -2.378897 6.693963 23.03217 4.987229
-760.8779 107.1486 -129.2333 16.56845 4.534165 113.0463 7.444573 16.44129 -2.214773 -0 21.61433 -0 -16.34634 -4.681074 -4.276889 0.7941178 -5.734487 -10.44037 -0 23.68683 -0 -3.433653 -8.2153 19.71958 3.849633 -1.170921 2.871398 -1.115741 13.46034 -2.176619 5.924794 26.40184 -1.614904 -4.821119 -21.14135 9.492992 -14.38212 -27.66829 8.644328 103.4933 0.7947124 -7.066709 -0 0 17.69905 -19.80359 5.918589 11.14705 2.934218 -17.04051 -5.349006 -95.87084 18.76898 28.82241 0 0 -2.37908 6.69404 23.0323 4.987144
-755.921 107.1412 -131.3952 16.6099 4.376057 112.5139 7.444581 16.44103 -2.214847 -0 21.61444 -0 -16.34646 -4.680773 -4.276845 0.7940641 -5.734155 -10.44041 -0 23.68723 -0 -3.43369 -8.215415 19.71952 3.849657 -1.170929 2.871348 -1.115751 13.46037 -2.176628 5.924829 26.40191 -1.614921 -4.821129 -21.14139 9.493018 -14.38226 -27.66824 8.644318 103.4936 0.7944623 -7.066834 -0 0 17.69883 -19.80357 5.918476 11.14692 2.934224 -17.04061 -5.349075 -95.8708 18.76904 28.82226 0 0 -2.379277 6.694113 23.03242 4.987061
-750.9434 107.1338 -133.509 16.64986 4.217565 111.9816 7.4446 16.44078 -2.21491 -0 21.6145 -0 -16.34657 -4.680507 -4.276812 0.7940264 -5.733862 -10.44042 -0 23.68763 -0 -3.433713 -8.215501 19.71946 3.849684 -1.170946 2.87131 -1.115758 13.46042 -2.176647 5.924855 26.40195 -1.614937 -4.821141 -21.14143 9.493038 -14.38237 -27.66822 8.644316 103.4938 0.7942411 -7.066966 -0 0 17.69864 -19.80357 5.918414 11.1468 2.934223 -17.04072 -5.349149 -95.87075 18.76908 28.82214 0 0 -2.379482 6.694182 23.03255 4.986983
-745.9457 107.1264 -135.5747 16.68832 4.058702 111.4496 7.444628 16.44055 -2.214962 -0 21.6145 -0 -16.34666 -4.680284 -4.27679 0.7940052 -5.733613 -10.44041 -0 23.68802 -0 -3.43372 -8.215555 19.7194 3.849714 -1.170972 2.871287 -1.115761 13.46047 -2.176676 5.924874 26.40198 -1.614952 -4.821153 -21.14145 9.493049 -14.38247 -27.66822 8.644323 103.4939 0.7940536 -7.067101 -0 0 17.6985 -19.80358 5.918403 11.1467 2.934216 -17.04083 -5.349225 -95.8707 18.76908 28.82206 0 0 -2.379689 6.694245 23.03267 4.986911
-740.9282 107.119 -137.5919 16.72528 3.899482 110.9178 7.444665 16.44035 -2.215001 -0 21.61445 -0 -16.34672 -4.680107 -4.27678 0.7940003 -5.733413 -10.44039 -0 23.68838 -0 -3.433714 -8.215577 19.71933 3.849744 -1.171004 2.871278 -1.115761 13.46054 -2.176713 5.924885 26.40199 -1.614966 -4.821166 -21.14148 9.493053 -14.38254 -27.66824 8.644337 103.4941 0.7939037 -7.067235 -0 0 17.69839 -19.80363 5.918442 11.14663 2.934204 -17.04094 -5.349301 -95.87065 18.76906 28.82201 0 0 -2.379892 6.694299 23.03278 4.986847
-735.8915 107.1117 -139.5605 16.76073 3.739918 110.3862 7.44471 16.44017 -2.215026 -0 21.61435 -0 -16.34676 -4.67998 -4.276781 0.7940114 -5.733266 -10.44034 -0 23.6887 -0 -3.433693 -8.215569 19.71927 3.849775 -1.171043 2.871282 -1.115758 13.46061 -2.176757 5.924887 26.40198 -1.614978 -4.821178 -21.14149 9.493049 -14.38259 -27.66827 8.644358 103.4942 0.7937938 -7.067364 -0 0 17.69833 -19.80368 5.918526 11.14658 2.934187 -17.04106 -5.349375 -95.8706 18.76901 28.82199 0 0 -2.380086 6.694345 23.03289 4.986792
-730.8359 107.1043 -141.4803 16.79469 3.580023 109.8548 7.444761 16.44003 -2.215039 -0 21.6142 -0 -16.34677 -4.679903 -4.276793 0.7940375 -5.733173 -10.44028 -0 23.68899 -0 -3.43366 -8.215532 19.71921 3.849805 -1.171087 2.871299 -1.115753 13.4607 -2.176807 5.924881 26.40196 -1.614988 -4.821191 -21.1415 9.493039 -14.38262 -27.66832 8.644386 103.4943 0.7937256 -7.067486 -0 0 17.69832 -19.80376 5.918653 11.14655 2.934165 -17.04117 -5.349446 -95.87056 18.76894 28.82201 0 0 -2.380266 6.69438 23.03298 4.986748
-725.7621 107.0969 -143.3512 16.82713 3.419811 109.3236 7.444816 16.43992 -2.215038 -0 21.61402 -0 -16.34676 -4.679878 -4.276814 0.7940774 -5.733136 -10.4402 -0 23.68922 -0 -3.433616 -8.215467 19.71915 3.849834 -1.171134 2.871328 -1.115744 13.46078 -2.17686 5.924868 26.40191 -1.614995 -4.821203 -21.14151 9.493021 -14.38262 -27.66839 8.644418 103.4943 0.7936992 -7.067598 -0 0 17.69834 -19.80385 5.918818 11.14654 2.934139 -17.04128 -5.349511 -95.87052 18.76884 28.82206 0 0 -2.380428 6.694405 23.03306 4.986716
-720.6704 107.0896 -145.1729 16.85806 3.259297 108.7925 7.444873 16.43985 -2.215024 -0 21.6138 -0 -16.34672 -4.679903 -4.276846 0.7941294 -5.733153 -10.44011 -0 23.68941 -0 -3.433562 -8.215378 19.7191 3.849861 -1.171182 2.871368 -1.115734 13.46087 -2.176916 5.924848 26.40185 -1.615001 -4.821215 -21.14151 9.492998 -14.3826 -27.66847 8.644454 103.4943 0.7937138 -7.067696 -0 0 17.69841 -19.80395 5.919013 11.14655 2.934111 -17.04137 -5.34957 -95.87048 18.76873 28.82213 0 0 -2.380568 6.694419 23.03312 4.986695
-715.5613 107.0822 -146.9453 16.88749 3.098494 108.2616 7.444932 16.43981 -2.214999 -0 21.61356 -0 -16.34667 -4.679975 -4.276885 0.7941917 -5.733221 -10.44001 -0 23.68953 -0 -3.4335 -8.215267 19.71906 3.849885 -1.171232 2.871417 -1.115721 13.46095 -2.176973 5.924822 26.40178 -1.615004 -4.821225 -21.1415 9.49297 -14.38256 -27.66856 8.644494 103.4943 0.7937674 -7.067779 -0 0 17.69851 -19.80406 5.919234 11.14659 2.934081 -17.04146 -5.34962 -95.87045 18.7686 28.82224 0 0 -2.380683 6.694422 23.03317 4.986686
-710.4354 107.0749 -148.6682 16.9154 2.937417 107.7308 7.44499 16.43982 -2.214963 -0 21.6133 -0 -16.34659 -4.680091 -4.27693 0.7942622 -5.733337 -10.43991 -0 23.6896 -0 -3.433432 -8.21514 19.71902 3.849906 -1.171281 2.871474 -1.115707 13.46103 -2.177029 5.924791 26.4017 -1.615005 -4.821234 -21.14149 9.492937 -14.3825 -27.66865 8.644535 103.4942 0.7938571 -7.067845 -0 0 17.69864 -19.80417 5.919473 11.14664 2.934049 -17.04153 -5.349661 -95.87042 18.76846 28.82236 0 0 -2.380772 6.694415 23.0332 4.986689
-705.293 107.0675 -150.3415 16.94181 2.776082 107.2002 7.445046 16.43986 -2.214917 -0 21.61303 -0 -16.3465 -4.680246 -4.276981 0.7943387 -5.733496 -10.4398 -0 23.68962 -0 -3.433361 -8.214999 19.719 3.849923 -1.171328 2.871536 -1.115692 13.46111 -2.177083 5.924756 26.40161 -1.615004 -4.821241 -21.14147 9.492902 -14.38242 -27.66875 8.644577 103.4941 0.7939791 -7.067892 -0 0 17.6988 -19.80428 5.919723 11.14672 2.934017 -17.04159 -5.349691 -95.8704 18.76831 28.82251 0 0 -2.380832 6.694398 23.03321 4.986703
